<svg xmlns="http://www.w3.org/2000/svg" width="26" height="30" viewBox="0 0 26 30" fill="none">
  <path
    d="M25.2112 7.54724L6.52205 18.3374M25.2112 7.54724L25.2112 9.31282L25.2112 12.9806L22.0779 14.7896M25.2112 7.54724L23.7101 6.71283L22.2649 7.54724L20.622 6.71283L22.222 5.7667L20.622 4.8667L17.5887 6.618"
    stroke="white" stroke-width="0.930909" />
  <path
    d="M12.9554 14.6574L12.9554 19.881L19.4062 23.5809M19.4062 23.5809V18.3809L20.8815 17.4809M19.4062 23.5809L23.922 20.9737V15.8476M23.922 15.8476L22.5364 16.6476M23.922 15.8476L17.4887 12.1333M22.5364 16.6476L20.9554 15.7348L19.4062 16.6292L20.8815 17.4809M22.5364 16.6476V18.4588L20.8815 19.4143V17.4809"
    stroke="white" stroke-width="0.930909" />
  <path
    d="M6.50453 23.5809V18.3809L5.02928 17.4809M6.50453 23.5809L1.98871 20.9737V15.8476M6.50453 23.5809L12.9554 19.881M1.98871 15.8476L3.37435 16.6476M1.98871 15.8476L8.42204 12.1333M3.37435 16.6476L4.95538 15.7348L6.50453 16.6292L5.02928 17.4809M3.37435 16.6476V18.4588L5.02928 19.4143V17.4809"
    stroke="white" stroke-width="0.930909" />
  <path d="M12.9554 19.9666V28.6999" stroke="white" stroke-width="0.930909" />
  <path d="M8.52205 22.5332V26.1999L12.9676 28.7665L17.4132 26.1999V22.5332" stroke="white" stroke-width="0.930909" />
  <path d="M12.9221 28.8L12.9221 6.20005" stroke="white" stroke-width="0.930909" />
  <path
    d="M8.52205 12.0666V3.76662M8.52205 3.76662L12.9676 1.19995L17.4132 3.76662M8.52205 3.76662L12.9676 6.33328L17.4132 3.76662M17.4132 3.76662V12.2"
    stroke="white" stroke-width="0.930909" />
  <path
    d="M0.755377 7.54724L8.37791 12.0806L19.3554 18.4184M0.755377 7.54724L0.755377 9.31282L2.25649 10.1472V12.0806L0.755377 11.2139V12.9806L3.88871 14.7896M0.755377 7.54724L2.25649 6.71283L3.70174 7.54724L5.34457 6.59875L3.70174 5.73272L5.34457 4.8667L8.37791 6.618"
    stroke="white" stroke-width="0.930909" />
</svg>